<?xml version="1.0" encoding="utf-8"?>
<!-- Generator: Adobe Illustrator 25.0.1, SVG Export Plug-In . SVG Version: 6.00 Build 0)  -->
<svg version="1.1" id="Layer_1" xmlns="http://www.w3.org/2000/svg" xmlns:xlink="http://www.w3.org/1999/xlink" x="0px" y="0px"
	 viewBox="0 0 3004 1750" style="enable-background:new 0 0 3004 1750;" xml:space="preserve">
<style type="text/css">
	.st0{clip-path:url(#SVGID_2_);}
	.st1{fill:#E5E3C9;}
	.st2{fill:#789395;}
	.st3{fill:#94B49F;}
	.st4{fill:none;stroke:#FFFFFF;stroke-width:8;stroke-miterlimit:10;}
	.st5{fill:#B4CFB0;}
	.st6{clip-path:url(#SVGID_2_);fill:#B4CFB0;}
	.st7{clip-path:url(#SVGID_2_);fill:#789395;}
	.st8{clip-path:url(#SVGID_2_);fill:#94B49F;}
	.st9{clip-path:url(#SVGID_2_);fill:#E5E3C9;}
	.st10{clip-path:url(#SVGID_2_);fill:none;stroke:#FFFFFF;stroke-width:5;stroke-linecap:round;stroke-miterlimit:10;}
</style>
<g>
	<g>
		<defs>
			<rect id="SVGID_1_" y="-327" width="3004" height="2077"/>
		</defs>
		<clipPath id="SVGID_2_">
			<use xlink:href="#SVGID_1_"  style="overflow:visible;"/>
		</clipPath>
		<g class="st0">
			<rect y="-327" class="st1" width="3004" height="2077"/>
			<path class="st2" d="M14.1,1314.9c86.1,4.2,166.3,42.4,245.1,77.2c78.9,34.8,162.8,67.4,248.7,59.4
				c121.9-11.4,220.7-101.3,301.8-193c81.1-91.7,159-193.5,270.7-243.6c139.9-62.7,305.2-30.5,445.1,32.3s265.5,154.4,406,215.9
				s307,90.4,445,23.5c107.7-52.2,181.6-153.9,275.6-227.9c148-116.4,350.5-160.2,533.4-115.4c182.9,44.8,342.2,177.4,419.5,349
				c48.5,107.7,64.4,236.6,12.9,342.9c-55.3,114-174.9,180.6-290.7,232c-457.3,203-963.1,279-1463.4,281.8
				c-500.3,2.8-998.1-65.2-1492.9-139.7c-166-25-340.3-54.3-471.5-159.1C-290.8,1698.2-305.8,1299.4,14.1,1314.9z"/>
			<path class="st3" d="M151.2,1238.2c150.4-112.6,341.5-184.1,526.5-151.6c175.7,30.9,335.7,151.9,513.4,136.1
				c334.1-29.6,491.8-508.4,826.4-530.4c146-9.6,280.7,74.9,396.4,164.4s230.7,190.7,373.2,224.2c160.8,37.9,335-16.4,492.3,34.1
				c220.8,70.8,334,343,275.7,567.5c-58.3,224.4-251.1,394.8-465.6,483c-214.4,88.2-450.4,106.4-682,118.4
				c-569.3,29.5-1174.7,18.7-1658.9-282.1c-128.8-80-258.7-183.1-410.3-178.5c-77.7,2.3-151.3,33.5-222.5,64.5
				c-71.3,31-144.5,62.8-222.1,66.5c-77.6,3.7-162-27-200.1-94.7c-67.6-120,78.4-213.5,142.6-295.1
				C-70.1,1445.8,29.5,1329.4,151.2,1238.2z"/>
			<path class="st4" d="M-457.8,1494.6c62.3-133.9,215.5-205.5,362.8-216.4c147.3-10.8,293.1,27.7,437.7,57.8
				c144.6,30.1,297,51.8,438.2,8.5c116.7-35.8,215.3-112.8,318.2-178.5c102.9-65.6,220.4-122.6,341.8-110.2
				c168.9,17.2,323.7,165.8,486.5,118c104.2-30.6,185.5-138.4,293.7-128.8c86.9,7.7,146.7,88.5,223.8,129.2
				c123.2,65.1,272.4,21.6,411.7,19c207.9-3.9,415.3,94,544.5,257"/>
			<path class="st5" d="M-178.4,1534.6c104.7,53.5,232.1-4.8,324-78.2c91.9-73.4,176.9-166.1,291.5-192.4
				c86.2-19.8,183.6-0.4,258.6-47.3c107.1-67,121.5-242,241-283c99.7-34.2,197.8,49.5,270.6,125.7c72.8,76.2,172.7,158.8,271.5,122
				c87.6-32.6,126.7-147,216.7-172.4c75.5-21.3,151.5,29.8,207.7,84.5c56.2,54.7,111.6,119.3,188.5,134.4
				c136.1,26.9,250.9-112.4,388.7-127.6c150.9-16.7,275.9,115.8,423.5,151c133.1,31.7,275.2-18,408.6,12.6
				c175.9,40.4,297.3,223.1,298.1,403.6s-101.4,350.7-241.2,464.8c-139.8,114.2-313.8,178.7-488.9,222.1
				c-602.6,149.6-1246.3,68.3-1829.5-144.8c-181.2-66.2-366.8-146.2-558.9-128.2c-140.7,13.2-271,78.3-408.9,109.2
				c-137.9,30.9-303,17.7-390.8-93c-72.1-90.9-69.6-223.8-24.1-330.5C-286.3,1660.6-258,1619-178,1535"/>
			<path class="st4" d="M-62.4,1667.1c204.1-6.6,344.6-206.7,532.7-286c159.6-67.3,342.1-42.7,511-4.4s339.6,89.8,512,72.7
				c167-16.6,321.9-96.7,488.1-120.1c213.1-30,426.4,34.6,635.4,86s435,88.9,634.6,8.5"/>
			<path class="st2" d="M2.4,1486.2c113.1-19.4,228.5,3.9,341.5,24s230.9,36.6,341,4.2c131.3-38.7,234.3-141.9,361.9-191.3
				c160.5-62.2,341.3-32.8,507,14c165.7,46.7,329.6,110.5,501.7,115.3c202.8,5.7,398.1-70.7,598.7-100.7
				c200.7-29.9,435.5,2.1,552.7,167.7c105.6,149.3,74.1,368.1-43.9,507.9c-117.9,139.8-304.2,207.8-486.7,219
				c-182.5,11.2-364.1-28.2-541.8-71.5c-177.7-43.3-356.2-90.9-539-96.6c-468-14.5-922.2,246.5-1385.8,180.8
				c-145.9-20.7-292-77.4-390.8-186.7C-369.1,1864.4-286.6,1535.9,2.4,1486.2z"/>
			<path class="st5" d="M-2,1771.6c89,22.8,172.8,64.4,264.1,76.3c217.3,28.3,413.7-113.8,584.6-244.4
				c170.9-130.6,376.6-265.7,590.9-221.2c248.9,51.7,404.3,329.6,658.2,349.4c121.5,9.5,237.1-44,353.3-79
				c116.2-35,256.6-47.7,348,28.9c100.8,84.4,90.8,246.9,7.3,346.9s-218.8,147.7-351.1,170.2c-456.9,77.8-921.4-91.4-1385.3-76.2
				c-294.7,9.6-580.2,93.2-868.5,151.4c-288.4,58.2-594.6,90.3-873.5-0.7c-80.1-26.1-164.8-70.9-187.2-148.5
				c-15.6-53.9,5.9-115.8,52.1-150.4c63.2-47.3,125.9-1.7,185-28c29.4-13.1,56.7-51.6,83.5-70.8c30.2-21.7,62.5-40.7,96.4-56.9
				C-308.9,1753.9-148.8,1734.1-2,1771.6z"/>
			<path class="st4" d="M-256.1,1762.4c78.8-103.9,227.4-131.6,355.5-107.1c128.1,24.6,243.3,91.4,361.6,146.5
				c118.2,55.1,249,100,377.3,76.4c181-33.2,315.8-194,494.5-238c290.8-71.6,570.2,184.3,869.5,174.2c142-4.8,274.2-69.3,412.2-103
				c352.2-86,748.6,48.1,976.3,330.3"/>
			<path class="st3" d="M888.2,1675.2c107.3,39.8,206.7,98.5,313.6,139.3c106.9,40.7,227,62.7,335.3,25.7
				c138.4-47.3,239.7-184.1,384.6-203.9c189.9-26,351.2,159.6,542.7,165.2c126.6,3.7,239.8-71.4,353.9-126.3s260.3-87.9,360-9.8
				c86.1,67.5,101.4,199.5,56.1,299.1c-45.2,99.6-138.2,170-237,217.1c-258.6,123.3-560.3,109.4-843.8,68.3
				c-283.5-41.1-568.2-106.9-853.2-78.6c-221.1,22-432.1,99.8-647.7,153.8s-447.2,83.5-656.8,9.8c-70.7-24.8-139.3-62.7-184.8-122.2
				c-31.1-40.6-50.2-93.2-47.5-144.6c2.6-50.5,29.2-71.1,60.2-107.1c62.4-72.3,133.5-135,214.3-186.1
				c158.9-100.3,346.8-154.9,534.8-154.9C680.3,1619.9,787.6,1637.9,888.2,1675.2z"/>
		</g>
		<circle class="st6" cx="1910" cy="-83" r="27"/>
		<circle class="st7" cx="542" cy="871" r="32"/>
		<circle class="st7" cx="2784" cy="-132" r="32"/>
		<circle class="st8" cx="2678" cy="792" r="51"/>
		<circle class="st9" cx="454" cy="175" r="51"/>
		<circle class="st10" cx="203" cy="528" r="25.5"/>
		<circle class="st10" cx="2825" cy="399" r="25.5"/>
	</g>
</g>
</svg>
